<svg xmlns="http://www.w3.org/2000/svg" width="1080" height="640" viewBox="0 0 1080 640" role="img" aria-labelledby="title desc">
<title id="title">Median query latency by physical layout</title>
<desc id="desc">Grouped bars on a logarithmic millisecond scale compare row and column layouts in sorted and unsorted order for three analytical queries.</desc>
<rect width="100%" height="100%" fill="#FFFFFF"/>
<text x="105" y="38" font-family="Arial, sans-serif" fill="#252A31" font-size="26" font-weight="700">Median query latency by physical layout</text>
<text x="105" y="67" font-family="Arial, sans-serif" fill="#59636E" font-size="15">Synthetic 85,478-row dataset · median of 9 warm-cache runs · log scale</text>
<line x1="105" y1="490.00" x2="1045" y2="490.00" stroke="#D9DEE5" stroke-width="1"/>
<text x="93" y="495.0" font-family="Arial, sans-serif" fill="#59636E" font-size="13" text-anchor="end">0.05</text>
<line x1="105" y1="454.89" x2="1045" y2="454.89" stroke="#D9DEE5" stroke-width="1"/>
<text x="93" y="459.8907921215902" font-family="Arial, sans-serif" fill="#59636E" font-size="13" text-anchor="end">0.1</text>
<line x1="105" y1="373.37" x2="1045" y2="373.37" stroke="#D9DEE5" stroke-width="1"/>
<text x="93" y="378.36973595946995" font-family="Arial, sans-serif" fill="#59636E" font-size="13" text-anchor="end">0.5</text>
<line x1="105" y1="338.26" x2="1045" y2="338.26" stroke="#D9DEE5" stroke-width="1"/>
<text x="93" y="343.26052808106016" font-family="Arial, sans-serif" fill="#59636E" font-size="13" text-anchor="end">1</text>
<line x1="105" y1="256.74" x2="1045" y2="256.74" stroke="#D9DEE5" stroke-width="1"/>
<text x="93" y="261.73947191893984" font-family="Arial, sans-serif" fill="#59636E" font-size="13" text-anchor="end">5</text>
<line x1="105" y1="221.63" x2="1045" y2="221.63" stroke="#D9DEE5" stroke-width="1"/>
<text x="93" y="226.63026404053005" font-family="Arial, sans-serif" fill="#59636E" font-size="13" text-anchor="end">10</text>
<line x1="105" y1="140.11" x2="1045" y2="140.11" stroke="#D9DEE5" stroke-width="1"/>
<text x="93" y="145.1092078784098" font-family="Arial, sans-serif" fill="#59636E" font-size="13" text-anchor="end">50</text>
<line x1="105" y1="105.00" x2="1045" y2="105.00" stroke="#D9DEE5" stroke-width="1"/>
<text x="93" y="110.0" font-family="Arial, sans-serif" fill="#59636E" font-size="13" text-anchor="end">100</text>
<text x="25" y="297.5" font-family="Arial, sans-serif" fill="#252A31" font-size="14" transform="rotate(-90 25 297.5)" text-anchor="middle">Median latency (ms, log scale)</text>
<rect x="189.67" y="171.08" width="43.00" height="318.92" fill="#2364AA" rx="2"/>
<text x="211.16666666666663" y="164.07542149841902" font-family="Arial, sans-serif" fill="#252A31" font-size="10" text-anchor="middle">27.13</text>
<rect x="237.67" y="163.34" width="43.00" height="326.66" fill="#D79F2B" rx="2"/>
<text x="259.16666666666663" y="156.34221145025816" font-family="Arial, sans-serif" fill="#252A31" font-size="10" text-anchor="middle">31.61</text>
<rect x="285.67" y="478.66" width="43.00" height="11.34" fill="#6D8C54" rx="2"/>
<text x="307.16666666666663" y="471.6641428552561" font-family="Arial, sans-serif" fill="#252A31" font-size="10" text-anchor="middle">0.06</text>
<rect x="333.67" y="476.68" width="43.00" height="13.32" fill="#C05A7A" rx="2"/>
<text x="355.16666666666663" y="469.67803839705357" font-family="Arial, sans-serif" fill="#252A31" font-size="10" text-anchor="middle">0.07</text>
<text x="261.66666666666663" y="520" font-family="Arial, sans-serif" fill="#252A31" font-size="14" text-anchor="middle">Status count</text>
<rect x="503.00" y="161.28" width="43.00" height="328.72" fill="#2364AA" rx="2"/>
<text x="524.5" y="154.28359630489018" font-family="Arial, sans-serif" fill="#252A31" font-size="10" text-anchor="middle">32.92</text>
<rect x="551.00" y="422.42" width="43.00" height="67.58" fill="#D79F2B" rx="2"/>
<text x="572.5" y="415.4239591312541" font-family="Arial, sans-serif" fill="#252A31" font-size="10" text-anchor="middle">0.19</text>
<rect x="599.00" y="436.55" width="43.00" height="53.45" fill="#6D8C54" rx="2"/>
<text x="620.5" y="429.5530108434424" font-family="Arial, sans-serif" fill="#252A31" font-size="10" text-anchor="middle">0.14</text>
<rect x="647.00" y="442.11" width="43.00" height="47.89" fill="#C05A7A" rx="2"/>
<text x="668.5" y="435.10707529728035" font-family="Arial, sans-serif" fill="#252A31" font-size="10" text-anchor="middle">0.13</text>
<text x="575.0" y="520" font-family="Arial, sans-serif" fill="#252A31" font-size="14" text-anchor="middle">Topic + time range</text>
<rect x="816.33" y="170.62" width="43.00" height="319.38" fill="#2364AA" rx="2"/>
<text x="837.8333333333333" y="163.61652442383348" font-family="Arial, sans-serif" fill="#252A31" font-size="10" text-anchor="middle">27.38</text>
<rect x="864.33" y="165.60" width="43.00" height="324.40" fill="#D79F2B" rx="2"/>
<text x="885.8333333333333" y="158.59991691342222" font-family="Arial, sans-serif" fill="#252A31" font-size="10" text-anchor="middle">30.23</text>
<rect x="912.33" y="383.93" width="43.00" height="106.07" fill="#6D8C54" rx="2"/>
<text x="933.8333333333333" y="376.92872093353213" font-family="Arial, sans-serif" fill="#252A31" font-size="10" text-anchor="middle">0.41</text>
<rect x="960.33" y="387.23" width="43.00" height="102.77" fill="#C05A7A" rx="2"/>
<text x="981.8333333333333" y="380.23157113735715" font-family="Arial, sans-serif" fill="#252A31" font-size="10" text-anchor="middle">0.38</text>
<text x="888.3333333333333" y="520" font-family="Arial, sans-serif" fill="#252A31" font-size="14" text-anchor="middle">Payload bytes by status</text>
<rect x="105" y="569" width="16" height="16" fill="#2364AA" rx="2"/>
<text x="128" y="582" font-family="Arial, sans-serif" fill="#252A31" font-size="13">Row / unsorted</text>
<rect x="330" y="569" width="16" height="16" fill="#D79F2B" rx="2"/>
<text x="353" y="582" font-family="Arial, sans-serif" fill="#252A31" font-size="13">Row / sorted</text>
<rect x="555" y="569" width="16" height="16" fill="#6D8C54" rx="2"/>
<text x="578" y="582" font-family="Arial, sans-serif" fill="#252A31" font-size="13">Column / unsorted</text>
<rect x="780" y="569" width="16" height="16" fill="#C05A7A" rx="2"/>
<text x="803" y="582" font-family="Arial, sans-serif" fill="#252A31" font-size="13">Column / sorted</text>
</svg>