<svg xmlns="http://www.w3.org/2000/svg" width="1080" height="610" viewBox="0 0 1080 610" role="img" aria-labelledby="title desc">
<title id="title">Physical layout size before and after gzip compression</title>
<desc id="desc">Grouped bars compare raw and gzip-compressed mebibytes for four custom physical layouts.</desc>
<defs><pattern id="openFill" width="8" height="8" patternUnits="userSpaceOnUse"><rect width="8" height="8" fill="#FFFFFF"/><path d="M0 8L8 0" stroke="#D79F2B" stroke-width="2"/></pattern></defs>
<rect width="100%" height="100%" fill="#FFFFFF"/>
<text x="105" y="38" font-family="Arial, sans-serif" fill="#252A31" font-size="26" font-weight="700">Physical layout size</text>
<text x="105" y="67" font-family="Arial, sans-serif" fill="#59636E" font-size="15">Same seven logical columns in every layout · MiB on a log scale</text>
<line x1="105" y1="475.00" x2="1045" y2="475.00" stroke="#D9DEE5" stroke-width="1"/>
<text x="93" y="480.0" font-family="Arial, sans-serif" fill="#59636E" font-size="13" text-anchor="end">0.01</text>
<line x1="105" y1="395.20" x2="1045" y2="395.20" stroke="#D9DEE5" stroke-width="1"/>
<text x="93" y="400.1952769109049" font-family="Arial, sans-serif" fill="#59636E" font-size="13" text-anchor="end">0.1</text>
<line x1="105" y1="315.39" x2="1045" y2="315.39" stroke="#D9DEE5" stroke-width="1"/>
<text x="93" y="320.39055382180976" font-family="Arial, sans-serif" fill="#59636E" font-size="13" text-anchor="end">1</text>
<line x1="105" y1="235.59" x2="1045" y2="235.59" stroke="#D9DEE5" stroke-width="1"/>
<text x="93" y="240.5858307327147" font-family="Arial, sans-serif" fill="#59636E" font-size="13" text-anchor="end">10</text>
<line x1="105" y1="155.78" x2="1045" y2="155.78" stroke="#D9DEE5" stroke-width="1"/>
<text x="93" y="160.78110764361958" font-family="Arial, sans-serif" fill="#59636E" font-size="13" text-anchor="end">100</text>
<line x1="105" y1="117.70" x2="1045" y2="117.70" stroke="#D9DEE5" stroke-width="1"/>
<text x="93" y="122.70457803079529" font-family="Arial, sans-serif" fill="#59636E" font-size="13" text-anchor="end">300</text>
<text x="27" y="287.5" font-family="Arial, sans-serif" fill="#252A31" font-size="14" transform="rotate(-90 27 287.5)" text-anchor="middle">Size (MiB, log scale)</text>
<rect x="153.50" y="118.98" width="65.00" height="356.02" fill="#2364AA" stroke="#252A31" stroke-width="1" rx="2"/>
<text x="186.0" y="110.98442328772342" font-family="Arial, sans-serif" fill="#252A31" font-size="11" text-anchor="middle">289.1</text>
<rect x="225.50" y="191.71" width="65.00" height="283.29" fill="url(#openFill)" stroke="#252A31" stroke-width="1" rx="2"/>
<text x="258.0" y="183.71279716654243" font-family="Arial, sans-serif" fill="#252A31" font-size="11" text-anchor="middle">35.5</text>
<text x="222.5" y="506" font-family="Arial, sans-serif" fill="#252A31" font-size="13" text-anchor="middle">Row / unsorted</text>
<rect x="388.50" y="118.98" width="65.00" height="356.02" fill="#2364AA" stroke="#252A31" stroke-width="1" rx="2"/>
<text x="421.0" y="110.98441848620928" font-family="Arial, sans-serif" fill="#252A31" font-size="11" text-anchor="middle">289.1</text>
<rect x="460.50" y="192.26" width="65.00" height="282.74" fill="url(#openFill)" stroke="#252A31" stroke-width="1" rx="2"/>
<text x="493.0" y="184.25816369339248" font-family="Arial, sans-serif" fill="#252A31" font-size="11" text-anchor="middle">34.9</text>
<text x="457.5" y="506" font-family="Arial, sans-serif" fill="#252A31" font-size="13" text-anchor="middle">Row / sorted</text>
<rect x="623.50" y="118.98" width="65.00" height="356.02" fill="#2364AA" stroke="#252A31" stroke-width="1" rx="2"/>
<text x="656.0" y="110.98442774627281" font-family="Arial, sans-serif" fill="#252A31" font-size="11" text-anchor="middle">289.1</text>
<rect x="695.50" y="196.63" width="65.00" height="278.37" fill="url(#openFill)" stroke="#252A31" stroke-width="1" rx="2"/>
<text x="728.0" y="188.62518686442496" font-family="Arial, sans-serif" fill="#252A31" font-size="11" text-anchor="middle">30.8</text>
<text x="692.5" y="506" font-family="Arial, sans-serif" fill="#252A31" font-size="13" text-anchor="middle">Column / unsorted</text>
<rect x="858.50" y="118.98" width="65.00" height="356.02" fill="#2364AA" stroke="#252A31" stroke-width="1" rx="2"/>
<text x="891.0" y="110.98442294475805" font-family="Arial, sans-serif" fill="#252A31" font-size="11" text-anchor="middle">289.1</text>
<rect x="930.50" y="197.14" width="65.00" height="277.86" fill="url(#openFill)" stroke="#252A31" stroke-width="1" rx="2"/>
<text x="963.0" y="189.14212843301476" font-family="Arial, sans-serif" fill="#252A31" font-size="11" text-anchor="middle">30.3</text>
<text x="927.5" y="506" font-family="Arial, sans-serif" fill="#252A31" font-size="13" text-anchor="middle">Column / sorted</text>
<rect x="370" y="547" width="18" height="18" fill="#2364AA" stroke="#252A31"/>
<text x="396" y="562" font-family="Arial, sans-serif" fill="#252A31" font-size="13">Raw</text>
<rect x="520" y="547" width="18" height="18" fill="url(#openFill)" stroke="#252A31"/>
<text x="546" y="562" font-family="Arial, sans-serif" fill="#252A31" font-size="13">Gzip level 6</text>
</svg>